<svg width="118" height="116" viewBox="0 0 118 116" fill="none" xmlns="http://www.w3.org/2000/svg">
<path opacity="0.5" d="M36.6453 88.6825C55.5779 88.6825 68.5792 96.5 77.702 96.5C86.8248 96.5 105.985 92.3196 105.985 58.8655C105.985 25.4113 80.2092 20.5 70.175 20.5C23.1869 20.5 3.11567 88.6825 36.6453 88.6825Z" fill="#F5F3F7"/>
<circle opacity="0.5" cx="2.99487" cy="23" r="1" stroke="#FFAA09" stroke-width="2"/>
<circle opacity="0.5" cx="98.5051" cy="30" r="3.5" stroke="#FFAA09" stroke-width="2"/>
<circle opacity="0.5" cx="18.5051" cy="39" r="3.5" stroke="#FFAA09" stroke-width="2"/>
<circle opacity="0.5" cx="109.005" cy="37.5" r="2" stroke="#FFAA09" stroke-width="2"/>
<g opacity="0.5">
<line x1="113.005" y1="20.5" x2="113.005" y2="26.5" stroke="#FFAA09" stroke-width="2" stroke-linecap="round"/>
<line x1="110.005" y1="23.5" x2="116.005" y2="23.5" stroke="#FFAA09" stroke-width="2" stroke-linecap="round"/>
</g>
<g opacity="0.5">
<line x1="5.00513" y1="27.5" x2="5.00513" y2="33.5" stroke="#FFAA09" stroke-width="2" stroke-linecap="round"/>
<line x1="2.00513" y1="30.5" x2="8.00513" y2="30.5" stroke="#FFAA09" stroke-width="2" stroke-linecap="round"/>
</g>
<g opacity="0.5">
<line x1="23.0051" y1="21.5" x2="23.0051" y2="25.5" stroke="#FFAA09" stroke-width="2" stroke-linecap="round"/>
<line x1="21.0051" y1="23.5" x2="25.0051" y2="23.5" stroke="#FFAA09" stroke-width="2" stroke-linecap="round"/>
</g>
<path d="M34.9949 32.5C34.9949 30.0147 37.0096 28 39.4949 28H54.4949C56.9802 28 58.9949 30.0147 58.9949 32.5V56.5C58.9949 58.9853 56.9802 61 54.4949 61H34.9949V32.5Z" stroke="#FFAA09" stroke-width="4.5"/>
<path opacity="0.3" d="M58.9949 34H77.1036C79.5554 34 80.9719 36.7816 79.5298 38.7645L73.5614 46.971C72.0313 49.0749 72.0313 51.9251 73.5614 54.029L79.5298 62.2355C80.9719 64.2184 79.5554 67 77.1036 67H61.9949C60.338 67 58.9949 65.6569 58.9949 64V34Z" stroke="#FFAA09" stroke-width="4.5"/>
<path d="M34.9949 88L34.9949 34" stroke="#FFAA09" stroke-width="4.5" stroke-linecap="round" stroke-linejoin="round"/>
</svg>
